<svg version="1.1" id="Layer_1" xmlns="http://www.w3.org/2000/svg" xmlns:xlink="http://www.w3.org/1999/xlink" x="0px" y="0px"
	 width="100%" viewBox="0 0 500 500" enable-background="new 0 0 500 500" xml:space="preserve">
<path fill="#0A0A0A" opacity="1.000000" stroke="none" 
	d="
M230.000000,501.000000 
	C153.333359,501.000000 77.166702,501.000000 1.000041,501.000000 
	C1.000027,334.333405 1.000027,167.666779 1.000014,1.000130 
	C167.666565,1.000087 334.333130,1.000087 500.999756,1.000043 
	C500.999847,167.666519 500.999847,334.333038 500.999939,500.999786 
	C410.833344,501.000000 320.666656,501.000000 230.000000,501.000000 
M409.619568,227.500214 
	C409.619568,193.771759 409.619568,160.043289 409.619568,125.468750 
	C356.094818,159.876617 303.397461,193.752609 250.541122,227.730789 
	C197.971268,193.748093 145.465286,159.806686 92.570969,125.614243 
	C92.570969,225.377411 92.570969,324.143097 92.570969,423.210938 
	C116.365120,423.210938 139.939514,423.210938 164.010437,423.210938 
	C164.010437,368.044006 164.010437,313.019379 164.010437,257.220276 
	C166.204224,258.582062 167.719421,259.481049 169.193161,260.443573 
	C194.811111,277.175110 220.458405,293.862335 245.988754,310.726562 
	C248.769073,312.563110 250.619843,312.527344 253.370010,310.762024 
	C279.958710,293.695343 306.643127,276.777740 333.300385,259.817871 
	C334.714203,258.918365 336.129669,258.021454 338.214111,256.698120 
	C338.214111,312.898132 338.214111,367.998840 338.214111,423.190979 
	C362.080841,423.190979 385.651123,423.190979 409.619568,423.190979 
	C409.619568,358.079559 409.619568,293.289917 409.619568,227.500214 
z"/>
<path fill="#FDFDFD" opacity="1.000000" stroke="none" 
	d="
M409.619568,228.000229 
	C409.619568,293.289917 409.619568,358.079559 409.619568,423.190979 
	C385.651123,423.190979 362.080841,423.190979 338.214111,423.190979 
	C338.214111,367.998840 338.214111,312.898132 338.214111,256.698120 
	C336.129669,258.021454 334.714203,258.918365 333.300385,259.817871 
	C306.643127,276.777740 279.958710,293.695343 253.370010,310.762024 
	C250.619843,312.527344 248.769073,312.563110 245.988754,310.726562 
	C220.458405,293.862335 194.811111,277.175110 169.193161,260.443573 
	C167.719421,259.481049 166.204224,258.582062 164.010437,257.220276 
	C164.010437,313.019379 164.010437,368.044006 164.010437,423.210938 
	C139.939514,423.210938 116.365120,423.210938 92.570969,423.210938 
	C92.570969,324.143097 92.570969,225.377411 92.570969,125.614243 
	C145.465286,159.806686 197.971268,193.748093 250.541122,227.730789 
	C303.397461,193.752609 356.094818,159.876617 409.619568,125.468750 
	C409.619568,160.043289 409.619568,193.771759 409.619568,228.000229 
z"/>
</svg>