<svg version="1.1" id="Layer_1" xmlns="http://www.w3.org/2000/svg" xmlns:xlink="http://www.w3.org/1999/xlink" x="0px" y="0px"
	 width="100%" viewBox="0 0 500 500" enable-background="new 0 0 500 500" xml:space="preserve">
<path fill="#141414" opacity="1.000000" stroke="none" 
	d="
M230.000000,501.000000 
	C153.333359,501.000000 77.166702,501.000000 1.000041,501.000000 
	C1.000027,334.333405 1.000027,167.666779 1.000014,1.000130 
	C167.666565,1.000087 334.333130,1.000087 500.999756,1.000043 
	C500.999847,167.666519 500.999847,334.333038 500.999939,500.999786 
	C410.833344,501.000000 320.666656,501.000000 230.000000,501.000000 
M409.623718,227.500214 
	C409.623718,193.773987 409.623718,160.047760 409.623718,125.466812 
	C356.092041,159.878723 303.395294,193.753906 250.540909,227.730423 
	C197.968613,193.746414 145.465408,159.807068 92.576675,125.618500 
	C92.576675,225.390228 92.576675,324.148560 92.576675,423.210022 
	C116.372665,423.210022 139.944122,423.210022 164.013885,423.210022 
	C164.013885,368.040100 164.013885,313.020203 164.013885,257.227203 
	C166.209244,258.588287 167.725540,259.485870 169.199387,260.448486 
	C194.817505,277.180450 220.464996,293.868042 245.995117,310.733276 
	C248.783340,312.575195 250.635590,312.514526 253.380386,310.750671 
	C279.681458,293.848877 306.077820,277.095306 332.449585,260.303589 
	C334.084229,259.262756 335.741821,258.258026 338.051575,256.825378 
	C338.051575,312.734833 338.051575,367.920288 338.051575,423.183594 
	C362.096344,423.183594 385.663635,423.183594 409.623688,423.183594 
	C409.623688,358.069580 409.623688,293.284912 409.623718,227.500214 
z"/>
<path fill="#FDFDFD" opacity="1.000000" stroke="none" 
	d="
M409.623718,228.000229 
	C409.623688,293.284912 409.623688,358.069580 409.623688,423.183594 
	C385.663635,423.183594 362.096344,423.183594 338.051575,423.183594 
	C338.051575,367.920288 338.051575,312.734833 338.051575,256.825378 
	C335.741821,258.258026 334.084229,259.262756 332.449585,260.303589 
	C306.077820,277.095306 279.681458,293.848877 253.380386,310.750671 
	C250.635590,312.514526 248.783340,312.575195 245.995117,310.733276 
	C220.464996,293.868042 194.817505,277.180450 169.199387,260.448486 
	C167.725540,259.485870 166.209244,258.588287 164.013885,257.227203 
	C164.013885,313.020203 164.013885,368.040100 164.013885,423.210022 
	C139.944122,423.210022 116.372665,423.210022 92.576675,423.210022 
	C92.576675,324.148560 92.576675,225.390228 92.576675,125.618500 
	C145.465408,159.807068 197.968613,193.746414 250.540909,227.730423 
	C303.395294,193.753906 356.092041,159.878723 409.623718,125.466812 
	C409.623718,160.047760 409.623718,193.773987 409.623718,228.000229 
z"/>
</svg>